<svg xmlns="http://www.w3.org/2000/svg" xmlns:xlink="http://www.w3.org/1999/xlink" width="500" zoomAndPan="magnify" viewBox="0 0 375 374.999991" height="500" preserveAspectRatio="xMidYMid meet" version="1.0"><defs><filter x="0%" y="0%" width="100%" height="100%" id="7f30a5fa84"><feColorMatrix values="0 0 0 0 1 0 0 0 0 1 0 0 0 0 1 0 0 0 1 0" color-interpolation-filters="sRGB"/></filter><g/><clipPath id="f1772a43c6"><path d="M 375 75 L 375 300 C 375 319.890625 367.097656 338.96875 353.03125 353.03125 C 338.96875 367.097656 319.890625 375 300 375 L 75 375 C 55.109375 375 36.03125 367.097656 21.96875 353.03125 C 7.902344 338.96875 0 319.890625 0 300 L 0 75 C 0 33.578125 33.578125 0 75 0 L 300 0 C 319.890625 0 338.96875 7.902344 353.03125 21.96875 C 367.097656 36.03125 375 55.109375 375 75 Z M 375 75 " clip-rule="nonzero"/></clipPath><clipPath id="b97d94b694"><path d="M 0 0 L 375 0 L 375 375 L 0 375 Z M 0 0 " clip-rule="nonzero"/></clipPath><clipPath id="eac50cb33a"><path d="M 375 75 L 375 300 C 375 319.890625 367.097656 338.96875 353.03125 353.03125 C 338.96875 367.097656 319.890625 375 300 375 L 75 375 C 55.109375 375 36.03125 367.097656 21.96875 353.03125 C 7.902344 338.96875 0 319.890625 0 300 L 0 75 C 0 33.578125 33.578125 0 75 0 L 300 0 C 319.890625 0 338.96875 7.902344 353.03125 21.96875 C 367.097656 36.03125 375 55.109375 375 75 Z M 375 75 " clip-rule="nonzero"/></clipPath><clipPath id="bdd1c8b603"><rect x="0" width="375" y="0" height="375"/></clipPath><mask id="e8e9d3ee48"><g filter="url(#7f30a5fa84)"><rect x="-37.5" width="450" fill="#000000" y="-37.499999" height="449.999989" fill-opacity="0.84"/></g></mask><clipPath id="707364aee1"><path d="M 0.980469 0.738281 L 140.5625 0.738281 L 140.5625 140.324219 L 0.980469 140.324219 Z M 0.980469 0.738281 " clip-rule="nonzero"/></clipPath><clipPath id="5870543c1e"><path d="M 70.769531 0.738281 C 32.226562 0.738281 0.980469 31.988281 0.980469 70.53125 C 0.980469 109.074219 32.226562 140.324219 70.769531 140.324219 C 109.316406 140.324219 140.5625 109.074219 140.5625 70.53125 C 140.5625 31.988281 109.316406 0.738281 70.769531 0.738281 Z M 70.769531 0.738281 " clip-rule="nonzero"/></clipPath><clipPath id="1dcaffa787"><path d="M 0.980469 0.738281 L 140.5625 0.738281 L 140.5625 140.324219 L 0.980469 140.324219 Z M 0.980469 0.738281 " clip-rule="nonzero"/></clipPath><clipPath id="e05d297efd"><path d="M 70.769531 0.738281 C 32.226562 0.738281 0.980469 31.988281 0.980469 70.53125 C 0.980469 109.074219 32.226562 140.324219 70.769531 140.324219 C 109.316406 140.324219 140.5625 109.074219 140.5625 70.53125 C 140.5625 31.988281 109.316406 0.738281 70.769531 0.738281 Z M 70.769531 0.738281 " clip-rule="nonzero"/></clipPath><clipPath id="cf25056f60"><rect x="0" width="141" y="0" height="141"/></clipPath><clipPath id="0a4b8c259c"><rect x="0" width="141" y="0" height="141"/></clipPath><mask id="0422b56ac2"><g filter="url(#7f30a5fa84)"><rect x="-37.5" width="450" fill="#000000" y="-37.499999" height="449.999989" fill-opacity="0.6"/></g></mask><clipPath id="9b1a7d720d"><path d="M 0.605469 0.738281 L 140.1875 0.738281 L 140.1875 140.324219 L 0.605469 140.324219 Z M 0.605469 0.738281 " clip-rule="nonzero"/></clipPath><clipPath id="3e883dd81b"><path d="M 70.394531 0.738281 C 31.851562 0.738281 0.605469 31.988281 0.605469 70.53125 C 0.605469 109.074219 31.851562 140.324219 70.394531 140.324219 C 108.941406 140.324219 140.1875 109.074219 140.1875 70.53125 C 140.1875 31.988281 108.941406 0.738281 70.394531 0.738281 Z M 70.394531 0.738281 " clip-rule="nonzero"/></clipPath><clipPath id="99f7d68d2b"><path d="M 0.605469 0.738281 L 140.1875 0.738281 L 140.1875 140.324219 L 0.605469 140.324219 Z M 0.605469 0.738281 " clip-rule="nonzero"/></clipPath><clipPath id="e1c60ffd4d"><path d="M 70.394531 0.738281 C 31.851562 0.738281 0.605469 31.988281 0.605469 70.53125 C 0.605469 109.074219 31.851562 140.324219 70.394531 140.324219 C 108.941406 140.324219 140.1875 109.074219 140.1875 70.53125 C 140.1875 31.988281 108.941406 0.738281 70.394531 0.738281 Z M 70.394531 0.738281 " clip-rule="nonzero"/></clipPath><clipPath id="66eef20080"><rect x="0" width="141" y="0" height="141"/></clipPath><clipPath id="2491e14ff2"><rect x="0" width="141" y="0" height="141"/></clipPath><mask id="ee06e57aa1"><g filter="url(#7f30a5fa84)"><rect x="-37.5" width="450" fill="#000000" y="-37.499999" height="449.999989" fill-opacity="0.6"/></g></mask><clipPath id="a5bba9f992"><path d="M 0.4375 0.53125 L 140.019531 0.53125 L 140.019531 140.113281 L 0.4375 140.113281 Z M 0.4375 0.53125 " clip-rule="nonzero"/></clipPath><clipPath id="c4d4bff622"><path d="M 70.230469 0.53125 C 31.683594 0.53125 0.4375 31.777344 0.4375 70.324219 C 0.4375 108.867188 31.683594 140.113281 70.230469 140.113281 C 108.773438 140.113281 140.019531 108.867188 140.019531 70.324219 C 140.019531 31.777344 108.773438 0.53125 70.230469 0.53125 Z M 70.230469 0.53125 " clip-rule="nonzero"/></clipPath><clipPath id="ef59e81cdd"><path d="M 0.4375 0.53125 L 140.019531 0.53125 L 140.019531 140.113281 L 0.4375 140.113281 Z M 0.4375 0.53125 " clip-rule="nonzero"/></clipPath><clipPath id="1b063db4a9"><path d="M 70.230469 0.53125 C 31.683594 0.53125 0.4375 31.777344 0.4375 70.324219 C 0.4375 108.867188 31.683594 140.113281 70.230469 140.113281 C 108.773438 140.113281 140.019531 108.867188 140.019531 70.324219 C 140.019531 31.777344 108.773438 0.53125 70.230469 0.53125 Z M 70.230469 0.53125 " clip-rule="nonzero"/></clipPath><clipPath id="c19add08a9"><rect x="0" width="141" y="0" height="141"/></clipPath><clipPath id="bf584b4468"><rect x="0" width="141" y="0" height="141"/></clipPath></defs><g clip-path="url(#f1772a43c6)"><g transform="matrix(1, 0, 0, 1, 0, 0)"><g clip-path="url(#bdd1c8b603)"><g clip-path="url(#b97d94b694)"><g clip-path="url(#eac50cb33a)"><rect x="-82.5" width="540" fill="#ffffff" height="539.999987" y="-82.499998" fill-opacity="1"/></g></g></g></g></g><g mask="url(#e8e9d3ee48)"><g transform="matrix(1, 0, 0, 1, 155, 49)"><g clip-path="url(#0a4b8c259c)"><g clip-path="url(#707364aee1)"><g clip-path="url(#5870543c1e)"><g transform="matrix(1, 0, 0, 1, 0.000000000000028422, 0)"><g clip-path="url(#cf25056f60)"><g clip-path="url(#1dcaffa787)"><g clip-path="url(#e05d297efd)"><path fill="#2fcc65" d="M 0.980469 0.738281 L 140.5625 0.738281 L 140.5625 140.324219 L 0.980469 140.324219 Z M 0.980469 0.738281 " fill-opacity="1" fill-rule="nonzero"/></g></g></g></g></g></g></g></g></g><g mask="url(#0422b56ac2)"><g transform="matrix(1, 0, 0, 1, 111, 91)"><g clip-path="url(#2491e14ff2)"><g clip-path="url(#9b1a7d720d)"><g clip-path="url(#3e883dd81b)"><g><g clip-path="url(#66eef20080)"><g clip-path="url(#99f7d68d2b)"><g clip-path="url(#e1c60ffd4d)"><path fill="#2fcc65" d="M 0.605469 0.738281 L 140.1875 0.738281 L 140.1875 140.324219 L 0.605469 140.324219 Z M 0.605469 0.738281 " fill-opacity="1" fill-rule="nonzero"/></g></g></g></g></g></g></g></g></g><g mask="url(#ee06e57aa1)"><g transform="matrix(1, 0, 0, 1, 79, 119)"><g clip-path="url(#bf584b4468)"><g clip-path="url(#a5bba9f992)"><g clip-path="url(#c4d4bff622)"><g><g clip-path="url(#c19add08a9)"><g clip-path="url(#ef59e81cdd)"><g clip-path="url(#1b063db4a9)"><path fill="#2fcc65" d="M 0.4375 0.53125 L 140.019531 0.53125 L 140.019531 140.113281 L 0.4375 140.113281 Z M 0.4375 0.53125 " fill-opacity="1" fill-rule="nonzero"/></g></g></g></g></g></g></g></g></g><g fill="#000000" fill-opacity="1"><g transform="translate(111.424802, 323.954568)"><g><path d="M 16.765625 -22.71875 C 18.804688 -22.71875 20.648438 -22.195312 22.296875 -21.15625 C 23.953125 -20.113281 25.269531 -18.71875 26.25 -16.96875 C 27.238281 -15.226562 27.734375 -13.285156 27.734375 -11.140625 C 27.734375 -8.984375 27.238281 -7.03125 26.25 -5.28125 C 25.269531 -3.539062 23.953125 -2.148438 22.296875 -1.109375 C 20.648438 -0.0664062 18.804688 0.453125 16.765625 0.453125 C 15.503906 0.453125 14.34375 0.238281 13.28125 -0.1875 C 12.21875 -0.613281 11.257812 -1.203125 10.40625 -1.953125 L 10.40625 0.0625 L 3.28125 0 L 3.28125 -38.140625 L 10.40625 -38.140625 L 10.40625 -20.328125 C 11.257812 -21.066406 12.21875 -21.648438 13.28125 -22.078125 C 14.34375 -22.503906 15.503906 -22.71875 16.765625 -22.71875 Z M 15.375 -5.84375 C 16.851562 -5.84375 18.101562 -6.351562 19.125 -7.375 C 20.144531 -8.394531 20.65625 -9.648438 20.65625 -11.140625 C 20.65625 -12.617188 20.144531 -13.867188 19.125 -14.890625 C 18.101562 -15.910156 16.851562 -16.421875 15.375 -16.421875 C 13.882812 -16.421875 12.628906 -15.910156 11.609375 -14.890625 C 10.585938 -13.867188 10.078125 -12.617188 10.078125 -11.140625 C 10.078125 -9.648438 10.585938 -8.394531 11.609375 -7.375 C 12.628906 -6.351562 13.882812 -5.84375 15.375 -5.84375 Z M 15.375 -5.84375 "/></g></g></g><g fill="#000000" fill-opacity="1"><g transform="translate(140.871089, 323.954568)"><g><path d="M 30.40625 -22.28125 L 38.3125 -22.28125 L 30.734375 0 L 23.21875 0 L 19.046875 -12.578125 L 14.875 0 L 7.40625 0 L -0.28125 -22.28125 L 7.796875 -22.28125 L 11.53125 -7.515625 L 16.265625 -22.28125 L 21.828125 -22.28125 L 26.609375 -7.46875 Z M 30.40625 -22.28125 "/></g></g></g><g fill="#000000" fill-opacity="1"><g transform="translate(178.945305, 323.954568)"><g><path d="M 25.953125 -11.1875 L 25.953125 -9.96875 L 8.90625 -9.96875 C 9.050781 -8.375 9.550781 -7.117188 10.40625 -6.203125 C 11.257812 -5.296875 12.488281 -4.84375 14.09375 -4.84375 C 16.539062 -4.84375 18.097656 -5.789062 18.765625 -7.6875 L 25.609375 -7.6875 C 25.054688 -5.269531 23.785156 -3.304688 21.796875 -1.796875 C 19.816406 -0.296875 17.285156 0.453125 14.203125 0.453125 C 11.710938 0.453125 9.53125 -0.03125 7.65625 -1 C 5.78125 -1.96875 4.320312 -3.320312 3.28125 -5.0625 C 2.238281 -6.8125 1.71875 -8.835938 1.71875 -11.140625 C 1.71875 -13.472656 2.238281 -15.507812 3.28125 -17.25 C 4.320312 -19 5.769531 -20.359375 7.625 -21.328125 C 9.476562 -22.296875 11.597656 -22.78125 13.984375 -22.78125 C 16.390625 -22.78125 18.484375 -22.296875 20.265625 -21.328125 C 22.046875 -20.359375 23.4375 -19.007812 24.4375 -17.28125 C 25.445312 -15.5625 25.953125 -13.53125 25.953125 -11.1875 Z M 14.09375 -17.3125 C 12.820312 -17.3125 11.804688 -17.039062 11.046875 -16.5 C 10.285156 -15.96875 9.722656 -15.21875 9.359375 -14.25 L 18.59375 -14.25 C 18.226562 -15.21875 17.679688 -15.96875 16.953125 -16.5 C 16.234375 -17.039062 15.28125 -17.3125 14.09375 -17.3125 Z M 14.09375 -17.3125 "/></g></g></g><g fill="#000000" fill-opacity="1"><g transform="translate(206.554678, 323.954568)"><g><path d="M 16.765625 -22.71875 C 18.242188 -22.71875 19.578125 -22.335938 20.765625 -21.578125 C 21.953125 -20.816406 22.90625 -19.785156 23.625 -18.484375 C 24.351562 -17.179688 24.71875 -15.71875 24.71875 -14.09375 L 24.71875 0 L 17.65625 0 L 17.65625 -12.921875 C 17.65625 -13.921875 17.328125 -14.753906 16.671875 -15.421875 C 16.023438 -16.085938 15.179688 -16.421875 14.140625 -16.421875 C 13.097656 -16.421875 12.210938 -16.085938 11.484375 -15.421875 C 10.765625 -14.753906 10.40625 -13.921875 10.40625 -12.921875 L 10.40625 0 L 3.28125 0 L 3.28125 -22.28125 L 10.40625 -22.28125 L 10.40625 -19.546875 C 11.1875 -20.515625 12.125 -21.285156 13.21875 -21.859375 C 14.320312 -22.429688 15.503906 -22.71875 16.765625 -22.71875 Z M 16.765625 -22.71875 "/></g></g></g><g fill="#000000" fill-opacity="1"><g transform="translate(234.108387, 323.954568)"><g><path d="M 19.09375 -38.140625 L 26.171875 -38.140625 L 26.171875 0 L 19.09375 0.0625 L 19.09375 -1.953125 C 18.28125 -1.203125 17.34375 -0.613281 16.28125 -0.1875 C 15.226562 0.238281 14.050781 0.453125 12.75 0.453125 C 10.707031 0.453125 8.847656 -0.0664062 7.171875 -1.109375 C 5.503906 -2.148438 4.175781 -3.539062 3.1875 -5.28125 C 2.207031 -7.03125 1.71875 -8.984375 1.71875 -11.140625 C 1.71875 -13.285156 2.207031 -15.226562 3.1875 -16.96875 C 4.175781 -18.71875 5.503906 -20.113281 7.171875 -21.15625 C 8.847656 -22.195312 10.707031 -22.71875 12.75 -22.71875 C 14.050781 -22.71875 15.226562 -22.503906 16.28125 -22.078125 C 17.34375 -21.648438 18.28125 -21.066406 19.09375 -20.328125 Z M 14.140625 -5.84375 C 15.585938 -5.84375 16.832031 -6.351562 17.875 -7.375 C 18.914062 -8.394531 19.4375 -9.648438 19.4375 -11.140625 C 19.4375 -12.617188 18.914062 -13.867188 17.875 -14.890625 C 16.832031 -15.910156 15.585938 -16.421875 14.140625 -16.421875 C 12.660156 -16.421875 11.410156 -15.910156 10.390625 -14.890625 C 9.367188 -13.867188 8.859375 -12.617188 8.859375 -11.140625 C 8.859375 -9.648438 9.367188 -8.394531 10.390625 -7.375 C 11.410156 -6.351562 12.660156 -5.84375 14.140625 -5.84375 Z M 14.140625 -5.84375 "/></g></g></g></svg>